<svg id="圖層_1" data-name="圖層 1" xmlns="http://www.w3.org/2000/svg" viewBox="0 0 218.81 84.07"><title>logo</title><path d="M95.37,50.84h2.71L104,68.22h-2.4l-1.85-5.47H93.59l-1.77,5.47H89.47ZM99.29,61l-1.7-5c-.39-1.14-.64-2.17-.9-3.18h-.08c-.23,1-.52,2.09-.85,3.15l-1.7,5Z"/><path d="M113.79,51.07a24,24,0,0,1,4.33-.36c2.37,0,3.94.44,5,1.42a4.43,4.43,0,0,1,1.36,3.32,4.55,4.55,0,0,1-3.27,4.41v.08c1.34.46,2.14,1.73,2.55,3.51a27.26,27.26,0,0,0,1.34,4.77h-2.34a22.72,22.72,0,0,1-1.14-4.15c-.51-2.38-1.44-3.31-3.48-3.38h-2.12v7.53h-2.26ZM118.35,59c2.4,0,3.89-1.31,3.89-3.3,0-2.24-1.62-3.22-4-3.24a9.35,9.35,0,0,0-2.22.2V59Z"/><path d="M138.49,52.75H133.2V50.84h12.87v1.91h-5.31V68.22h-2.27Z"/><path d="M153.52,59.63c0-5.34,3.33-9.08,8.13-9.08s7.76,3.92,7.76,9c0,5.78-3.69,9-8.07,9C156.62,68.5,153.52,64.81,153.52,59.63ZM167,59.55c0-3.55-1.73-7.17-5.55-7.17-3.61,0-5.59,3.28-5.59,7.17s2,7.12,5.57,7.12S167,63.34,167,59.55Z"/><path d="M178.54,59.63c0-5.16,3.58-9,9.41-9a11.41,11.41,0,0,1,4.33.79l-.54,1.84a8.9,8.9,0,0,0-3.84-.75c-4.23,0-7,2.63-7,7s2.63,7,6.71,7a7.31,7.31,0,0,0,3-.46V60.89h-3.51v-1.8h5.73v8.35a15.45,15.45,0,0,1-5.34,1,8.16,8.16,0,0,1-8.92-8.77Z"/><path d="M202.44,59.63c0-5.34,3.33-9.08,8.13-9.08,5,0,7.76,3.92,7.76,9,0,5.78-3.69,9-8.07,9C205.54,68.5,202.44,64.81,202.44,59.63ZM216,59.55c0-3.55-1.73-7.17-5.55-7.17-3.61,0-5.59,3.28-5.59,7.17s2,7.12,5.57,7.12S216,63.34,216,59.55Z"/><path d="M94.61,15.69H90.13V14.34h4.51V10.58h2.47v3.76h2V10.52h2.41v3.82h2.85V10.58h2.41v3.76h1.68V10.52h2.47v3.82h5l0,1.35h-5v2c0,.82.24,1.15,1.32,1.21a4.08,4.08,0,0,0,2.86-.66l1,1.92a7,7,0,0,1-4.33,1c-3-.12-3.34-.87-3.34-3v-2.5h-1.68v5H99.06v-5H97c-.33,3.1-1.66,5.2-6.29,6.46l-.42-.93C93.05,20,94.37,18.46,94.61,15.69Zm-4,6.86h24.57v5.38h-2.59v-4h-8.39V27h7.52v6.1c0,2.65-2.34,3.7-6.52,1.23l.24-1c3.61.75,3.81.27,3.81-1.11V28.32h-5v10h-2.58v-10H96.87v8.24H94.4V27h7.25V23.9H93.23v4H90.64Zm10.83-3.22h2.85V15.69h-2.85Z"/><path d="M130.37,17.49v20.9h-2.53V21.64a22.31,22.31,0,0,1-3.61,3.85l-.72-.81A35.76,35.76,0,0,0,129.92,10l2.94.87A38.83,38.83,0,0,1,130.37,17.49Zm12.18-.21V35.45c0,2.79-2.8,4.45-8.09.36l.36-1c4.57,1.51,5.08,1.09,5.08-.48v-17H136a32.26,32.26,0,0,1-3.79,5.84l-.93-.63a29.76,29.76,0,0,0,3.88-12.12l3.06.66a24.57,24.57,0,0,1-1.59,4.9h10.14l.6-.48,3,1.71a22.28,22.28,0,0,1-4.42,4.54L145,21a13.25,13.25,0,0,0,1.65-3.7ZM138,23.78a30.54,30.54,0,0,1-5.8,10.76l-.87-.66a34.36,34.36,0,0,0,3.82-11Zm13,9-3,1.32a80.69,80.69,0,0,0-3.64-10.61l.9-.57A45.1,45.1,0,0,1,151,32.83Z"/><path d="M169.49,21a26.87,26.87,0,0,1-1.84,2.44h13.57v14.7h-2.71V36.26H167.17v2.07h-2.7V26.82A29.36,29.36,0,0,1,158.54,31L158,30a29.87,29.87,0,0,0,8.63-9H159V19.69h8.41a17.52,17.52,0,0,0,1-2.14h-7.88V16.2H169c.24-.66.45-1.29.63-1.95-3.19.21-6.43.33-9.26.27l-.15-1.09a64.49,64.49,0,0,0,19.18-3.36l2.77,2.34A59.53,59.53,0,0,1,172.74,14a16.72,16.72,0,0,1-.69,2.23h10.73v1.35H171.47a19.72,19.72,0,0,1-1.11,2.14h14.23V21Zm9,3.79H167.17v2.44h11.34Zm0,3.73H167.17v2.49h11.34Zm0,3.79H167.17V34.9h11.34Z"/><path d="M218.81,35.36l-1.54,3.06a14.84,14.84,0,0,1-10.55-10.67h-3.1V34c1.93-.18,3.73-.42,5-.63l.24,1.08A48.67,48.67,0,0,1,198,37.31l-.88-2.92c1.12,0,2.47-.06,3.88-.15V27.75h-3.66c-.58,4.9-1.84,8.21-4.18,10.73l-.88-.69c2.83-5,2.65-11.1,2.65-20V11.9h21v5.62H197.73v2.26c0,2.46-.06,4.66-.24,6.61h5V22.51h-4.12V21.16h4.12V18.22H205v2.94h4.18V18.22h2.59v2.94H217v1.35h-5.2v3.88h6.28v1.36H207.89a11,11,0,0,0,2.53,3.91,20,20,0,0,0,3.67-3.52l2.4,1.86a32.24,32.24,0,0,1-5.23,2.41A17.23,17.23,0,0,0,218.81,35.36ZM197.73,16.17h15.48V13.25H197.73ZM205,26.39h4.18V22.51H205Z"/><path d="M63.76,24.78l-9.08-4.85V.35h0V0H0V78H50.5l10.94,5.1,2.32,1ZM33,10.08V67.87H9.79V10.08Zm3.24,0h8.68v4.63Zm-.92,58.21V12.23L61.44,26.17V80.49Zm-33,7.34V2.33h50V18.69L47.22,16V7.76H7.46V70.2H33.87l11.65,5.43Z"/></svg>